<svg width="63" height="49" fill="none" xmlns="http://www.w3.org/2000/svg"><mask id="a" maskUnits="userSpaceOnUse" x="3" y="33" width="56" height="16"><path d="M3.311 33.505h55.562v14.696H3.311V33.505z" fill="#fff"/></mask><g mask="url(#a)"><path fill-rule="evenodd" clip-rule="evenodd" d="M18.192 48.201c-4.979 0-9.916-1.764-14.137-5.148l-.744-.598 7.614-8.597a.91.91 0 0 1 1.363 1.207l-6.335 7.151c5.32 3.923 11.744 5.148 17.767 3.357l7.371-2.195 7.371 2.195c6.02 1.791 12.443.566 17.764-3.354l-6.415-7.199a.91.91 0 0 1 1.36-1.21l7.702 8.643-.747.6c-5.936 4.76-13.292 6.314-20.183 4.263l-6.852-2.039-6.852 2.04a21.162 21.162 0 0 1-6.047.884z" fill="#003B50"/></g><path fill-rule="evenodd" clip-rule="evenodd" d="M43.163 21.662h-.002v-1.365l.002 1.365z" fill="#003B50"/><path fill-rule="evenodd" clip-rule="evenodd" d="M31.089 45.375l-14.997-8.654a12.818 12.818 0 0 1-5.293-10.554l.127-8.858 5.997 1.97a.909.909 0 1 1-.567 1.727L12.71 19.81l-.092 6.383a10.998 10.998 0 0 0 4.504 9.027l13.973 8.058 14.14-8.06a10.983 10.983 0 0 0 4.524-9.043l-.09-6.377-4.155 1.325a.91.91 0 0 1-.553-1.734l6.493-2.069.124 8.83a12.805 12.805 0 0 1-5.318 10.57l-.081.052-15.091 8.602z" fill="#003B50"/><path fill-rule="evenodd" clip-rule="evenodd" d="M31.13 30.924l-12.648-7.23 12.648 17.88 12.37-17.88-12.37 7.23z" fill="#003B50"/><path fill-rule="evenodd" clip-rule="evenodd" d="M31.13 0L18.877 20.441l12.228 7.42 12.396-7.32L31.13 0z" fill="#003B50"/><mask id="b" maskUnits="userSpaceOnUse" x="0" y="25" width="11" height="13"><path d="M0 25.938h10.33v11.251H0V25.938z" fill="#fff"/></mask><g mask="url(#b)"><path fill-rule="evenodd" clip-rule="evenodd" d="M6.844 37.189a.91.91 0 0 1-.886-.708c-.604-2.655-2.31-5.486-4.932-8.188L0 27.239l1.403-.446c3.095-.984 5.8-1.118 8.269-.405a.909.909 0 1 1-.504 1.748c-1.77-.51-3.644-.514-5.814 0 2.28 2.61 3.785 5.333 4.379 7.942a.913.913 0 0 1-.89 1.111z" fill="#003B50"/></g><path fill-rule="evenodd" clip-rule="evenodd" d="M55.43 37.189a.911.911 0 0 1-.888-1.112c.595-2.609 2.1-5.331 4.379-7.941-2.17-.514-4.043-.51-5.814 0a.907.907 0 0 1-1.125-.622.908.908 0 0 1 .62-1.126c2.47-.713 5.176-.579 8.27.405l1.403.446-1.025 1.054c-2.623 2.701-4.328 5.532-4.933 8.188a.91.91 0 0 1-.886.708zM16.621 18.436a.909.909 0 0 1-.905-1.011l.724-6.473 4.535 3.092a.91.91 0 0 1-1.024 1.505l-2.039-1.39-.388 3.469a.91.91 0 0 1-.903.808zm28.729 0a.908.908 0 0 1-.9-.794l-.446-3.497-2.058 1.404a.91.91 0 0 1-1.025-1.504l4.514-3.079.819 6.447a.91.91 0 0 1-.904 1.023z" fill="#003B50"/></svg>